<?xml version="1.0" encoding="utf-8"?>
<!-- Generator: Adobe Illustrator 27.3.0, SVG Export Plug-In . SVG Version: 6.00 Build 0)  -->
<svg version="1.1" id="Ebene_1" xmlns="http://www.w3.org/2000/svg" xmlns:xlink="http://www.w3.org/1999/xlink" x="0px" y="0px"
	 viewBox="0 0 1106.9 364.4" style="enable-background:new 0 0 1106.9 364.4;" xml:space="preserve">
<style type="text/css">
	.st0{fill:none;}
	.st1{fill:#00335A;}
	.st2{fill:#F15D31;}
</style>
<rect x="0.2" y="0" class="st0" width="182.6" height="182.6"/>
<rect x="0.2" y="182.6" class="st0" width="91.3" height="91.3"/>
<rect x="0.2" y="273.1" class="st0" width="91.3" height="91.3"/>
<rect x="1015.9" y="182.6" class="st0" width="91.3" height="91.3"/>
<rect x="1015.9" y="273.1" class="st0" width="91.3" height="91.3"/>
<g>
	<g>
		<path class="st1" d="M701.9,233.9H617l-16.2,39.2h-43.4l81.5-182.8h41.8l81.7,182.8h-44.4L701.9,233.9z M688.6,201.8l-29-70
			l-29,70H688.6z"/>
		<path class="st1" d="M959.1,292.7c-5.9,7.3-13.1,12.9-21.5,16.7c-8.4,3.8-17.7,5.7-27.8,5.7c-13.6,0-25.9-2.9-36.8-8.7
			c-11-5.8-23.5-16.2-37.6-30.9c-16.5-2.1-31.3-7.4-44.3-15.9c-13-8.5-23.1-19.5-30.3-33c-7.2-13.5-10.8-28.4-10.8-44.8
			c0-17.9,4.3-34.1,12.9-48.4c8.6-14.4,20.5-25.6,35.8-33.8c15.2-8.2,32.3-12.3,51.3-12.3c19,0,36,4.1,51.2,12.3
			c15.1,8.2,27.1,19.5,35.8,33.8c8.7,14.4,13.1,30.5,13.1,48.4c0,21.2-6,39.9-17.9,55.9c-11.9,16-27.7,27.2-47.4,33.4
			c4.3,4.5,8.6,7.8,12.7,9.8c4.1,2,8.5,3,13.2,3c11.3,0,21.2-4.5,29.8-13.6L959.1,292.7z M800.2,211.9c5,8.9,11.8,15.8,20.5,20.8
			c8.7,5,18.5,7.4,29.3,7.4c10.8,0,20.5-2.5,29.3-7.4c8.7-5,15.5-11.9,20.5-20.8c5-8.9,7.4-19,7.4-30.3c0-11.3-2.5-21.4-7.4-30.3
			c-5-8.9-11.8-15.8-20.5-20.8c-8.7-5-18.5-7.4-29.3-7.4c-10.8,0-20.5,2.5-29.3,7.4c-8.7,5-15.5,11.9-20.5,20.8
			c-5,8.9-7.4,19-7.4,30.3C792.7,193,795.2,203.1,800.2,211.9z"/>
		<path class="st2" d="M557.1,133.6c-8.4-13.8-20.3-24.4-35.5-32c-15.2-7.6-32.8-11.4-52.6-11.4h-83.1v74.5h42.3V125h38.7
			c18.3,0,32.9,5.1,43.7,15.3c10.9,10.2,16.3,24,16.3,41.4c0,17.4-5.4,31.2-16.3,41.4c-6.2,5.8-13.7,10-22.4,12.5l-0.7,0.2v36.1
			l0.7-0.1c12.1-1.7,23.3-5,33.4-10c15.2-7.6,27.1-18.2,35.5-32c8.4-13.8,12.7-29.8,12.7-48.1S565.5,147.4,557.1,133.6z"/>
		<g>
			<path class="st1" d="M113.2,268.2c-6.7-3.8-12-9.1-15.9-15.8c-3.9-6.7-5.8-14.4-5.8-22.9c0-8.5,1.9-16.1,5.8-22.9
				c3.9-6.7,9.2-12,15.9-15.7c6.7-3.8,14.3-5.6,22.7-5.6c8.4,0,16,1.9,22.7,5.6c6.7,3.8,12,9,15.8,15.7c3.8,6.7,5.7,14.4,5.7,22.9
				c0,8.5-1.9,16.1-5.7,22.9c-3.8,6.7-9.1,12-15.8,15.8c-6.7,3.8-14.3,5.7-22.7,5.7C127.5,273.9,120,272,113.2,268.2z M152.6,259.2
				c4.9-2.8,8.8-6.8,11.5-12c2.8-5.2,4.1-11.1,4.1-17.7c0-6.6-1.4-12.5-4.1-17.7c-2.8-5.2-6.6-9.2-11.5-12
				c-4.9-2.8-10.5-4.2-16.7-4.2c-6.2,0-11.7,1.4-16.7,4.2c-4.9,2.8-8.8,6.8-11.6,12c-2.8,5.2-4.2,11.1-4.2,17.7
				c0,6.6,1.4,12.5,4.2,17.7c2.8,5.2,6.7,9.2,11.6,12c4.9,2.8,10.5,4.2,16.7,4.2C142.1,263.5,147.7,262,152.6,259.2z"/>
			<path class="st1" d="M255.6,190.8c6.6,3.7,11.8,8.9,15.6,15.7c3.8,6.7,5.6,14.4,5.6,23c0,8.7-1.9,16.5-5.6,23.2
				c-3.8,6.7-8.9,12-15.5,15.7c-6.6,3.7-14,5.6-22.3,5.6c-7.1,0-13.5-1.5-19.1-4.4c-5.7-2.9-10.4-7.2-14-12.8v48.6h-11.8V185.9h11.3
				v17.2c3.5-5.7,8.2-10.2,14-13.3c5.8-3.1,12.3-4.6,19.6-4.6C241.6,185.2,249,187.1,255.6,190.8z M249.1,259.2
				c5-2.8,8.9-6.8,11.7-12c2.8-5.2,4.2-11.1,4.2-17.7c0-6.6-1.4-12.5-4.2-17.6c-2.8-5.1-6.7-9.1-11.7-12c-5-2.9-10.5-4.3-16.6-4.3
				c-6.2,0-11.7,1.4-16.7,4.3c-4.9,2.9-8.8,6.9-11.6,12c-2.8,5.1-4.2,11-4.2,17.6c0,6.6,1.4,12.5,4.2,17.7c2.8,5.2,6.7,9.2,11.6,12
				c4.9,2.8,10.5,4.2,16.7,4.2C238.6,263.5,244.2,262,249.1,259.2z"/>
			<path class="st1" d="M371.7,233.1h-72.9c0.7,9.1,4.1,16.4,10.4,22c6.3,5.6,14.3,8.4,23.9,8.4c5.4,0,10.4-1,14.9-2.9
				c4.5-1.9,8.5-4.8,11.8-8.5l6.6,7.6c-3.9,4.6-8.7,8.2-14.5,10.6c-5.8,2.4-12.2,3.6-19.1,3.6c-8.9,0-16.9-1.9-23.8-5.7
				c-6.9-3.8-12.3-9.1-16.2-15.8c-3.9-6.7-5.8-14.4-5.8-22.9c0-8.5,1.8-16.1,5.6-22.9c3.7-6.7,8.8-12,15.2-15.7
				c6.5-3.8,13.7-5.6,21.8-5.6c8.1,0,15.3,1.9,21.7,5.6c6.4,3.8,11.4,9,15.1,15.7c3.6,6.7,5.5,14.3,5.5,23L371.7,233.1z
				 M308.5,203.4c-5.7,5.4-8.9,12.3-9.7,21h61.8c-0.8-8.6-4-15.6-9.7-21c-5.7-5.4-12.8-8-21.3-8C321.2,195.3,314.2,198,308.5,203.4z
				"/>
			<path class="st1" d="M456.6,194.8c6.5,6.4,9.7,15.6,9.7,27.8v50.5h-11.8v-49.4c0-9.1-2.3-16-6.8-20.7c-4.5-4.7-11-7.1-19.4-7.1
				c-9.4,0-16.8,2.8-22.3,8.4c-5.5,5.6-8.2,13.3-8.2,23.1v45.7h-11.8v-87.2h11.3V202c3.2-5.3,7.6-9.4,13.3-12.3
				c5.7-2.9,12.3-4.4,19.8-4.4C441.5,185.2,450.2,188.4,456.6,194.8z"/>
		</g>
		<path class="st1" d="M951.8,111.4c0-20.4,16.5-36.9,36.9-36.9c20.4,0,36.9,16.5,36.9,36.9s-16.5,36.9-36.9,36.9
			C968.3,148.3,951.8,131.8,951.8,111.4z M990.5,86.7l-1.8,5.5c-0.6,1.9-2.4,3.2-4.4,3.2h-5.7c-4.5,0-6.4,5.8-2.7,8.4l4.7,3.4
			c1.6,1.2,2.3,3.3,1.7,5.2l-1.8,5.5c-1.4,4.3,3.5,7.8,7.1,5.2l4.7-3.4c1.6-1.2,3.8-1.2,5.5,0l4.7,3.4c3.6,2.6,8.5-0.9,7.1-5.2
			l-1.8-5.5c-0.6-1.9,0.1-4,1.7-5.2l4.7-3.4c3.6-2.6,1.8-8.4-2.7-8.4h-5.7c-2,0-3.8-1.3-4.4-3.2l-1.8-5.5
			C998,82.4,991.9,82.4,990.5,86.7z"/>
		<path class="st1" d="M758.3,249.3"/>
		<path class="st1" d="M726,179"/>
	</g>
	<g>
		<path class="st1" d="M984.2,160.8h-8.9v24.4h-4.9v-24.4h-8.8v-4h22.6V160.8z"/>
		<path class="st1" d="M994,156.8l8.2,21.8l8.2-21.8h6.4v28.4h-4.9v-9.4l0.5-12.5l-8.4,21.9h-3.5l-8.4-21.9l0.5,12.5v9.4h-4.9v-28.4
			H994z"/>
	</g>
</g>
</svg>
