<?xml version="1.0" encoding="UTF-8"?>
<svg xmlns="http://www.w3.org/2000/svg" xmlns:xlink="http://www.w3.org/1999/xlink" width="165px" height="54px" viewBox="0 0 164 54" version="1.1">
<g id="surface1">
<path style=" stroke:none;fill-rule:nonzero;fill:rgb(0%,20%,35.294118%);fill-opacity:1;" d="M 103.96875 34.660156 L 91.40625 34.660156 L 89.007812 40.46875 L 82.585938 40.46875 L 94.644531 13.382812 L 100.832031 13.382812 L 112.921875 40.46875 L 106.351562 40.46875 Z M 102 29.90625 L 97.707031 19.53125 L 93.417969 29.90625 Z M 102 29.90625 "/>
<path style=" stroke:none;fill-rule:nonzero;fill:rgb(0%,20%,35.294118%);fill-opacity:1;" d="M 142.03125 43.375 C 141.15625 44.457031 140.089844 45.285156 138.847656 45.851562 C 137.605469 46.414062 136.230469 46.695312 134.734375 46.695312 C 132.722656 46.695312 130.902344 46.265625 129.289062 45.40625 C 127.660156 44.546875 125.8125 43.003906 123.722656 40.824219 C 121.28125 40.515625 119.09375 39.730469 117.167969 38.46875 C 115.246094 37.210938 113.75 35.582031 112.683594 33.578125 C 111.621094 31.578125 111.085938 29.371094 111.085938 26.941406 C 111.085938 24.289062 111.722656 21.886719 112.996094 19.769531 C 114.269531 17.632812 116.027344 15.976562 118.292969 14.757812 C 120.542969 13.542969 123.074219 12.9375 125.886719 12.9375 C 128.695312 12.9375 131.210938 13.542969 133.460938 14.757812 C 135.695312 15.976562 137.472656 17.648438 138.761719 19.769531 C 140.046875 21.902344 140.699219 24.289062 140.699219 26.941406 C 140.699219 30.082031 139.808594 32.851562 138.050781 35.222656 C 136.289062 37.59375 133.949219 39.253906 131.035156 40.175781 C 131.671875 40.839844 132.308594 41.328125 132.914062 41.625 C 133.519531 41.921875 134.171875 42.070312 134.867188 42.070312 C 136.539062 42.070312 138.003906 41.402344 139.277344 40.054688 Z M 118.515625 31.402344 C 119.253906 32.71875 120.261719 33.742188 121.550781 34.484375 C 122.835938 35.222656 124.285156 35.582031 125.886719 35.582031 C 127.484375 35.582031 128.917969 35.210938 130.222656 34.484375 C 131.507812 33.742188 132.515625 32.71875 133.253906 31.402344 C 133.996094 30.082031 134.351562 28.585938 134.351562 26.910156 C 134.351562 25.238281 133.980469 23.738281 133.253906 22.421875 C 132.515625 21.101562 131.507812 20.078125 130.222656 19.339844 C 128.933594 18.597656 127.484375 18.242188 125.886719 18.242188 C 124.285156 18.242188 122.851562 18.613281 121.550781 19.339844 C 120.261719 20.078125 119.253906 21.101562 118.515625 22.421875 C 117.777344 23.738281 117.421875 25.238281 117.421875 26.910156 C 117.40625 28.601562 117.777344 30.097656 118.515625 31.402344 Z M 118.515625 31.402344 "/>
<path style=" stroke:none;fill-rule:nonzero;fill:rgb(94.509804%,36.470588%,19.215686%);fill-opacity:1;" d="M 82.539062 19.796875 C 81.296875 17.753906 79.535156 16.183594 77.285156 15.054688 C 75.039062 13.929688 72.433594 13.367188 69.503906 13.367188 L 57.203125 13.367188 L 57.203125 24.40625 L 63.464844 24.40625 L 63.464844 18.523438 L 69.191406 18.523438 C 71.898438 18.523438 74.0625 19.28125 75.660156 20.789062 C 77.273438 22.300781 78.070312 24.347656 78.070312 26.925781 C 78.070312 29.503906 77.273438 31.550781 75.660156 33.0625 C 74.742188 33.921875 73.632812 34.542969 72.34375 34.914062 L 72.242188 34.941406 L 72.242188 40.292969 L 72.34375 40.277344 C 74.132812 40.027344 75.792969 39.535156 77.285156 38.796875 C 79.535156 37.667969 81.296875 36.097656 82.539062 34.054688 C 83.785156 32.007812 84.417969 29.636719 84.417969 26.925781 C 84.417969 24.214844 83.785156 21.84375 82.539062 19.796875 Z M 82.539062 19.796875 "/>
<path style=" stroke:none;fill-rule:nonzero;fill:rgb(0%,20%,35.294118%);fill-opacity:1;" d="M 16.847656 39.746094 C 15.859375 39.179688 15.074219 38.394531 14.496094 37.402344 C 13.917969 36.410156 13.636719 35.269531 13.636719 34.007812 C 13.636719 32.75 13.917969 31.625 14.496094 30.617188 C 15.074219 29.621094 15.859375 28.835938 16.847656 28.289062 C 17.839844 27.726562 18.964844 27.460938 20.207031 27.460938 C 21.453125 27.460938 22.578125 27.742188 23.566406 28.289062 C 24.558594 28.851562 25.34375 29.621094 25.90625 30.617188 C 26.46875 31.609375 26.75 32.75 26.75 34.007812 C 26.75 35.269531 26.46875 36.394531 25.90625 37.402344 C 25.34375 38.394531 24.558594 39.179688 23.566406 39.746094 C 22.578125 40.308594 21.453125 40.589844 20.207031 40.589844 C 18.964844 40.589844 17.855469 40.308594 16.847656 39.746094 Z M 22.679688 38.410156 C 23.40625 37.996094 23.980469 37.402344 24.382812 36.632812 C 24.796875 35.863281 24.988281 34.988281 24.988281 34.007812 C 24.988281 33.03125 24.78125 32.15625 24.382812 31.386719 C 23.96875 30.617188 23.40625 30.023438 22.679688 29.609375 C 21.953125 29.191406 21.125 28.984375 20.207031 28.984375 C 19.292969 28.984375 18.476562 29.191406 17.738281 29.609375 C 17.011719 30.023438 16.433594 30.617188 16.019531 31.386719 C 15.605469 32.15625 15.398438 33.03125 15.398438 34.007812 C 15.398438 34.988281 15.605469 35.863281 16.019531 36.632812 C 16.433594 37.402344 17.011719 37.996094 17.738281 38.410156 C 18.460938 38.824219 19.292969 39.03125 20.207031 39.03125 C 21.125 39.046875 21.953125 38.824219 22.679688 38.410156 Z M 22.679688 38.410156 "/>
<path style=" stroke:none;fill-rule:nonzero;fill:rgb(0%,20%,35.294118%);fill-opacity:1;" d="M 37.921875 28.273438 C 38.898438 28.824219 39.667969 29.59375 40.230469 30.601562 C 40.792969 31.59375 41.058594 32.734375 41.058594 34.007812 C 41.058594 35.296875 40.777344 36.453125 40.230469 37.449219 C 39.667969 38.441406 38.914062 39.226562 37.9375 39.773438 C 36.960938 40.320312 35.867188 40.605469 34.636719 40.605469 C 33.585938 40.605469 32.640625 40.382812 31.8125 39.953125 C 30.96875 39.523438 30.273438 38.882812 29.738281 38.054688 L 29.738281 45.257812 L 27.992188 45.257812 L 27.992188 27.546875 L 29.664062 27.546875 L 29.664062 30.097656 C 30.183594 29.253906 30.878906 28.585938 31.738281 28.125 C 32.59375 27.667969 33.558594 27.445312 34.636719 27.445312 C 35.851562 27.445312 36.945312 27.726562 37.921875 28.273438 Z M 36.960938 38.410156 C 37.699219 37.996094 38.277344 37.402344 38.691406 36.632812 C 39.105469 35.863281 39.3125 34.988281 39.3125 34.007812 C 39.3125 33.03125 39.105469 32.15625 38.691406 31.402344 C 38.277344 30.644531 37.699219 30.050781 36.960938 29.621094 C 36.21875 29.191406 35.40625 28.984375 34.503906 28.984375 C 33.585938 28.984375 32.773438 29.191406 32.03125 29.621094 C 31.308594 30.050781 30.730469 30.644531 30.316406 31.402344 C 29.902344 32.15625 29.695312 33.03125 29.695312 34.007812 C 29.695312 34.988281 29.902344 35.863281 30.316406 36.632812 C 30.730469 37.402344 31.308594 37.996094 32.03125 38.410156 C 32.757812 38.824219 33.585938 39.03125 34.503906 39.03125 C 35.40625 39.046875 36.234375 38.824219 36.960938 38.410156 Z M 36.960938 38.410156 "/>
<path style=" stroke:none;fill-rule:nonzero;fill:rgb(0%,20%,35.294118%);fill-opacity:1;" d="M 55.105469 34.542969 L 44.316406 34.542969 C 44.417969 35.890625 44.921875 36.972656 45.855469 37.804688 C 46.785156 38.632812 47.972656 39.046875 49.390625 39.046875 C 50.191406 39.046875 50.929688 38.898438 51.597656 38.617188 C 52.261719 38.335938 52.855469 37.90625 53.34375 37.359375 L 54.320312 38.484375 C 53.742188 39.167969 53.03125 39.699219 52.171875 40.054688 C 51.316406 40.410156 50.367188 40.589844 49.347656 40.589844 C 48.03125 40.589844 46.847656 40.308594 45.824219 39.746094 C 44.804688 39.179688 44.003906 38.394531 43.425781 37.402344 C 42.851562 36.410156 42.570312 35.269531 42.570312 34.007812 C 42.570312 32.75 42.835938 31.625 43.398438 30.617188 C 43.945312 29.621094 44.699219 28.835938 45.648438 28.289062 C 46.609375 27.726562 47.675781 27.460938 48.875 27.460938 C 50.070312 27.460938 51.136719 27.742188 52.085938 28.289062 C 53.03125 28.851562 53.773438 29.621094 54.320312 30.617188 C 54.851562 31.609375 55.132812 32.734375 55.132812 34.023438 Z M 45.75 30.140625 C 44.90625 30.941406 44.433594 31.964844 44.316406 33.253906 L 53.460938 33.253906 C 53.34375 31.980469 52.867188 30.941406 52.027344 30.140625 C 51.183594 29.339844 50.132812 28.957031 48.875 28.957031 C 47.628906 28.941406 46.59375 29.339844 45.75 30.140625 Z M 45.75 30.140625 "/>
<path style=" stroke:none;fill-rule:nonzero;fill:rgb(0%,20%,35.294118%);fill-opacity:1;" d="M 67.667969 28.867188 C 68.628906 29.816406 69.101562 31.179688 69.101562 32.988281 L 69.101562 40.46875 L 67.355469 40.46875 L 67.355469 33.148438 C 67.355469 31.800781 67.015625 30.777344 66.351562 30.082031 C 65.683594 29.386719 64.722656 29.03125 63.480469 29.03125 C 62.089844 29.03125 60.992188 29.445312 60.179688 30.273438 C 59.367188 31.105469 58.964844 32.246094 58.964844 33.699219 L 58.964844 40.46875 L 57.21875 40.46875 L 57.21875 27.546875 L 58.890625 27.546875 L 58.890625 29.933594 C 59.367188 29.148438 60.015625 28.542969 60.859375 28.113281 C 61.703125 27.683594 62.679688 27.460938 63.789062 27.460938 C 65.433594 27.445312 66.71875 27.917969 67.667969 28.867188 Z M 67.667969 28.867188 "/>
<path style=" stroke:none;fill-rule:nonzero;fill:rgb(0%,20%,35.294118%);fill-opacity:1;" d="M 140.949219 16.507812 C 140.949219 13.484375 143.390625 11.039062 146.410156 11.039062 C 149.429688 11.039062 151.871094 13.484375 151.871094 16.507812 C 151.871094 19.53125 149.429688 21.976562 146.410156 21.976562 C 143.390625 21.976562 140.949219 19.53125 140.949219 16.507812 Z M 146.675781 12.847656 L 146.410156 13.664062 C 146.320312 13.945312 146.054688 14.136719 145.757812 14.136719 L 144.917969 14.136719 C 144.25 14.136719 143.96875 14.996094 144.515625 15.382812 L 145.210938 15.886719 C 145.449219 16.0625 145.550781 16.375 145.464844 16.65625 L 145.195312 17.472656 C 144.988281 18.109375 145.714844 18.628906 146.246094 18.242188 L 146.945312 17.738281 C 147.179688 17.558594 147.503906 17.558594 147.757812 17.738281 L 148.453125 18.242188 C 148.984375 18.628906 149.710938 18.109375 149.503906 17.472656 L 149.238281 16.65625 C 149.148438 16.375 149.253906 16.0625 149.488281 15.886719 L 150.183594 15.382812 C 150.71875 14.996094 150.449219 14.136719 149.785156 14.136719 L 148.941406 14.136719 C 148.644531 14.136719 148.378906 13.945312 148.289062 13.664062 L 148.023438 12.847656 C 147.785156 12.210938 146.882812 12.210938 146.675781 12.847656 Z M 146.675781 12.847656 "/>
<path style=" stroke:none;fill-rule:nonzero;fill:rgb(0%,20%,35.294118%);fill-opacity:1;" d="M 145.746094 23.828125 L 144.425781 23.828125 L 144.425781 27.445312 L 143.703125 27.445312 L 143.703125 23.828125 L 142.398438 23.828125 L 142.398438 23.234375 L 145.746094 23.234375 Z M 145.746094 23.828125 "/>
<path style=" stroke:none;fill-rule:nonzero;fill:rgb(0%,20%,35.294118%);fill-opacity:1;" d="M 147.195312 23.234375 L 148.410156 26.464844 L 149.621094 23.234375 L 150.570312 23.234375 L 150.570312 27.445312 L 149.84375 27.445312 L 149.84375 26.050781 L 149.917969 24.199219 L 148.675781 27.445312 L 148.15625 27.445312 L 146.914062 24.199219 L 146.988281 26.050781 L 146.988281 27.445312 L 146.261719 27.445312 L 146.261719 23.234375 Z M 147.195312 23.234375 "/>
</g>
</svg>
